# xmcd CD database file
#
# Track frame offsets:
#	150
#	30427
#	54660
#	76295
#	104507
#	122940
#	147022
#	168075
#	187635
#	211205
#	233292
#	254912
#
# Disc length: 3669 seconds
#
# Revision: 0
# Processed by: cddbd v1.5.1PL0 Copyright (c) Steve Scherf et al.
# Submitted via: Feurio! 1.67 - http://www.feurio.com
#
DISCID=960e530c
DTITLE=Tyrone Davis - Back To The Future Years
DYEAR=1900
DGENRE=blues
TTITLE0=Do You Feel It
TTITLE1=It's A Miracle
TTITLE2=It Keeps On Flashin' Back
TTITLE3=Heart Failure
TTITLE4=Overdue
TTITLE5=Sexy Thing
TTITLE6=Come On Over
TTITLE7=Wrong Doers
TTITLE8=I'm So Excited
TTITLE9=Be Honest With Me
TTITLE10=You Stay On My Mind
TTITLE11=All Of Me
EXTD=
EXTT0=
EXTT1=
EXTT2=
EXTT3=
EXTT4=
EXTT5=
EXTT6=
EXTT7=
EXTT8=
EXTT9=
EXTT10=
EXTT11=
PLAYORDER=
